<svg xmlns="http://www.w3.org/2000/svg" xmlns:xlink="http://www.w3.org/1999/xlink" width="40" zoomAndPan="magnify" viewBox="0 0 30 30.000001" height="40" preserveAspectRatio="xMidYMid meet" version="1.0"><defs><clipPath id="d7b008cb06"><path d="M 0.484375 0 L 29.515625 0 L 29.515625 29.03125 L 0.484375 29.03125 Z M 0.484375 0 " clip-rule="nonzero"/></clipPath></defs><g clip-path="url(#d7b008cb06)"><path fill="#ffa1a1" d="M 29.507812 14.644531 C 29.5 15.574219 28.578125 16.40625 28.390625 17.304688 C 28.203125 18.207031 28.710938 19.335938 28.351562 20.183594 C 27.988281 21.03125 26.824219 21.453125 26.304688 22.214844 C 25.789062 22.976562 25.828125 24.214844 25.167969 24.863281 C 24.515625 25.503906 23.28125 25.445312 22.5 25.957031 C 21.742188 26.453125 21.304688 27.613281 20.429688 27.964844 C 19.558594 28.316406 18.441406 27.785156 17.550781 27.957031 C 16.632812 28.132812 15.785156 29.03125 14.871094 29.023438 C 13.941406 29.015625 13.113281 28.097656 12.214844 27.90625 C 11.308594 27.71875 10.179688 28.226562 9.332031 27.867188 C 8.484375 27.507812 8.0625 26.339844 7.300781 25.820312 C 7.277344 25.804688 7.253906 25.792969 7.234375 25.777344 C 6.46875 25.308594 5.285156 25.328125 4.652344 24.683594 C 4.011719 24.03125 4.070312 22.796875 3.558594 22.015625 C 3.0625 21.257812 1.902344 20.820312 1.550781 19.949219 C 1.199219 19.074219 1.730469 17.957031 1.558594 17.066406 C 1.382812 16.148438 0.484375 15.300781 0.492188 14.386719 C 0.5 13.460938 1.421875 12.628906 1.609375 11.730469 C 1.796875 10.824219 1.289062 9.695312 1.648438 8.847656 C 2.011719 8 3.175781 7.578125 3.695312 6.816406 C 4.210938 6.054688 4.171875 4.816406 4.832031 4.167969 C 5.484375 3.527344 6.71875 3.585938 7.5 3.074219 C 8.257812 2.578125 8.695312 1.421875 9.570312 1.066406 C 10.441406 0.714844 11.558594 1.246094 12.449219 1.074219 C 13.367188 0.898438 14.214844 0 15.128906 0.0078125 C 16.03125 0.015625 16.839844 0.886719 17.710938 1.105469 C 17.734375 1.113281 17.761719 1.117188 17.785156 1.125 C 18.691406 1.3125 19.820312 0.804688 20.667969 1.164062 C 21.515625 1.523438 21.933594 2.691406 22.699219 3.210938 C 23.457031 3.726562 24.695312 3.6875 25.347656 4.347656 C 25.988281 5 25.929688 6.234375 26.441406 7.015625 C 26.9375 7.773438 28.09375 8.210938 28.449219 9.082031 C 28.800781 9.957031 28.269531 11.074219 28.441406 11.964844 C 28.617188 12.882812 29.515625 13.734375 29.507812 14.644531 Z M 29.507812 14.644531 " fill-opacity="0.498" fill-rule="nonzero"/></g><path fill="#ff8585" d="M 28.914062 14.640625 C 28.90625 15.53125 28.023438 16.328125 27.84375 17.1875 C 27.664062 18.058594 28.152344 19.140625 27.804688 19.953125 C 27.460938 20.765625 26.34375 21.167969 25.84375 21.902344 C 25.347656 22.628906 25.386719 23.816406 24.753906 24.441406 C 24.128906 25.054688 22.945312 25 22.195312 25.488281 C 21.464844 25.964844 21.046875 27.078125 20.210938 27.414062 C 19.375 27.753906 18.300781 27.242188 17.445312 27.40625 C 16.566406 27.574219 15.753906 28.4375 14.878906 28.429688 C 13.988281 28.421875 13.191406 27.539062 12.328125 27.359375 C 11.460938 27.179688 10.378906 27.664062 9.5625 27.320312 C 8.75 26.972656 8.347656 25.855469 7.613281 25.359375 C 7.59375 25.34375 7.574219 25.332031 7.550781 25.316406 C 6.820312 24.863281 5.683594 24.882812 5.074219 24.265625 C 4.460938 23.644531 4.519531 22.457031 4.027344 21.710938 C 3.550781 20.980469 2.4375 20.5625 2.101562 19.726562 C 1.765625 18.886719 2.273438 17.816406 2.109375 16.960938 C 1.941406 16.082031 1.078125 15.269531 1.085938 14.390625 C 1.09375 13.5 1.976562 12.703125 2.15625 11.84375 C 2.335938 10.976562 1.851562 9.890625 2.195312 9.078125 C 2.542969 8.265625 3.660156 7.863281 4.15625 7.128906 C 4.652344 6.402344 4.613281 5.214844 5.25 4.589844 C 5.871094 3.976562 7.058594 4.035156 7.808594 3.542969 C 8.535156 3.066406 8.953125 1.957031 9.789062 1.617188 C 10.628906 1.28125 11.699219 1.789062 12.554688 1.625 C 13.433594 1.457031 14.246094 0.59375 15.125 0.601562 C 15.988281 0.609375 16.765625 1.441406 17.601562 1.65625 C 17.625 1.660156 17.648438 1.667969 17.671875 1.671875 C 18.542969 1.851562 19.625 1.367188 20.4375 1.710938 C 21.25 2.058594 21.652344 3.175781 22.386719 3.671875 C 23.113281 4.167969 24.300781 4.128906 24.925781 4.765625 C 25.539062 5.390625 25.480469 6.574219 25.972656 7.324219 C 26.449219 8.050781 27.5625 8.46875 27.898438 9.304688 C 28.234375 10.144531 27.726562 11.214844 27.890625 12.070312 C 28.058594 12.949219 28.921875 13.765625 28.914062 14.640625 Z M 28.914062 14.640625 " fill-opacity="0.498" fill-rule="nonzero"/><path fill="#b53939" d="M 19.359375 23.273438 L 12.058594 5.1875 C 11.824219 4.609375 11.898438 3.949219 12.265625 3.441406 C 12.453125 3.183594 12.523438 2.925781 12.4375 2.707031 C 12.230469 2.195312 11.214844 2.125 10.167969 2.546875 C 9.121094 2.972656 8.4375 3.726562 8.644531 4.238281 C 8.730469 4.457031 8.964844 4.59375 9.28125 4.648438 C 9.894531 4.757812 10.40625 5.179688 10.640625 5.761719 L 17.945312 23.84375 C 18.175781 24.421875 18.105469 25.085938 17.734375 25.589844 C 17.546875 25.847656 17.476562 26.109375 17.5625 26.324219 C 17.769531 26.835938 18.785156 26.90625 19.832031 26.484375 C 20.882812 26.0625 21.5625 25.304688 21.355469 24.792969 C 21.269531 24.578125 21.039062 24.4375 20.722656 24.382812 C 20.105469 24.277344 19.59375 23.851562 19.359375 23.273438 Z M 19.359375 23.273438 " fill-opacity="1" fill-rule="nonzero"/><path fill="#993130" d="M 22.253906 19.324219 L 8.582031 8.636719 C 8.144531 8.296875 7.90625 7.753906 7.964844 7.199219 C 7.996094 6.914062 7.9375 6.683594 7.773438 6.558594 C 7.386719 6.253906 6.570312 6.652344 5.953125 7.445312 C 5.335938 8.234375 5.144531 9.121094 5.53125 9.425781 C 5.695312 9.554688 5.933594 9.554688 6.203125 9.457031 C 6.722656 9.269531 7.308594 9.367188 7.746094 9.710938 L 21.417969 20.394531 C 21.855469 20.738281 22.09375 21.277344 22.035156 21.832031 C 22.003906 22.117188 22.066406 22.347656 22.230469 22.472656 C 22.617188 22.777344 23.429688 22.378906 24.050781 21.589844 C 24.667969 20.796875 24.855469 19.910156 24.46875 19.609375 C 24.304688 19.480469 24.066406 19.476562 23.800781 19.574219 C 23.277344 19.765625 22.695312 19.664062 22.253906 19.324219 Z M 22.253906 19.324219 " fill-opacity="1" fill-rule="nonzero"/><path fill="#b53939" d="M 24.761719 15.117188 L 5.453125 12.402344 C 4.832031 12.3125 4.296875 11.917969 4.042969 11.347656 C 3.914062 11.054688 3.722656 10.863281 3.496094 10.832031 C 2.949219 10.757812 2.378906 11.601562 2.21875 12.71875 C 2.0625 13.835938 2.378906 14.804688 2.925781 14.882812 C 3.15625 14.914062 3.390625 14.785156 3.597656 14.539062 C 3.996094 14.058594 4.621094 13.828125 5.238281 13.914062 L 24.550781 16.632812 C 25.167969 16.71875 25.707031 17.113281 25.957031 17.683594 C 26.089844 17.976562 26.277344 18.167969 26.507812 18.199219 C 27.054688 18.277344 27.625 17.433594 27.78125 16.3125 C 27.9375 15.195312 27.625 14.226562 27.078125 14.148438 C 26.847656 14.117188 26.613281 14.25 26.40625 14.496094 C 26.007812 14.972656 25.382812 15.207031 24.761719 15.117188 Z M 24.761719 15.117188 " fill-opacity="1" fill-rule="nonzero"/><path fill="#993130" d="M 22.789062 10.636719 L 6.703125 17.132812 C 6.1875 17.34375 5.597656 17.277344 5.148438 16.949219 C 4.917969 16.78125 4.6875 16.71875 4.496094 16.796875 C 4.039062 16.980469 3.976562 17.886719 4.351562 18.816406 C 4.726562 19.75 5.402344 20.355469 5.859375 20.171875 C 6.050781 20.09375 6.171875 19.886719 6.222656 19.605469 C 6.316406 19.058594 6.695312 18.601562 7.210938 18.394531 L 23.300781 11.898438 C 23.816406 11.6875 24.40625 11.753906 24.855469 12.082031 C 25.085938 12.25 25.316406 12.3125 25.507812 12.234375 C 25.960938 12.050781 26.027344 11.148438 25.648438 10.214844 C 25.273438 9.285156 24.597656 8.679688 24.144531 8.863281 C 23.953125 8.941406 23.828125 9.144531 23.78125 9.425781 C 23.683594 9.972656 23.304688 10.429688 22.789062 10.636719 Z M 22.789062 10.636719 " fill-opacity="1" fill-rule="nonzero"/><path fill="#b53939" d="M 20.402344 6.363281 L 8.394531 21.730469 C 8.011719 22.222656 7.398438 22.488281 6.777344 22.421875 C 6.460938 22.386719 6.199219 22.457031 6.054688 22.640625 C 5.71875 23.074219 6.164062 23.992188 7.050781 24.6875 C 7.941406 25.382812 8.9375 25.59375 9.277344 25.15625 C 9.421875 24.976562 9.425781 24.707031 9.316406 24.40625 C 9.101562 23.816406 9.214844 23.160156 9.597656 22.667969 L 21.605469 7.304688 C 21.992188 6.8125 22.601562 6.542969 23.222656 6.609375 C 23.542969 6.644531 23.800781 6.578125 23.945312 6.390625 C 24.285156 5.957031 23.839844 5.042969 22.949219 4.347656 C 22.058594 3.652344 21.0625 3.441406 20.722656 3.875 C 20.582031 4.058594 20.578125 4.324219 20.6875 4.628906 C 20.902344 5.214844 20.789062 5.871094 20.402344 6.363281 Z M 20.402344 6.363281 " fill-opacity="1" fill-rule="nonzero"/><path fill="#993130" d="M 15.535156 5.832031 L 13.117188 23.011719 C 13.039062 23.5625 12.691406 24.039062 12.183594 24.265625 C 11.921875 24.382812 11.75 24.550781 11.722656 24.753906 C 11.65625 25.238281 12.40625 25.75 13.398438 25.886719 C 14.394531 26.027344 15.257812 25.75 15.324219 25.261719 C 15.355469 25.058594 15.238281 24.847656 15.019531 24.664062 C 14.59375 24.308594 14.386719 23.75 14.464844 23.203125 L 16.882812 6.019531 C 16.960938 5.46875 17.3125 4.992188 17.820312 4.765625 C 18.078125 4.652344 18.25 4.484375 18.277344 4.277344 C 18.347656 3.792969 17.597656 3.285156 16.601562 3.144531 C 15.605469 3.003906 14.742188 3.285156 14.675781 3.769531 C 14.648438 3.976562 14.761719 4.183594 14.984375 4.367188 C 15.410156 4.722656 15.613281 5.28125 15.535156 5.832031 Z M 15.535156 5.832031 " fill-opacity="1" fill-rule="nonzero"/><path fill="#c9403f" d="M 22.691406 11.410156 C 24.40625 15.65625 22.355469 20.492188 18.109375 22.207031 C 16.121094 23.011719 14 22.988281 12.136719 22.300781 C 10.015625 21.519531 8.222656 19.882812 7.308594 17.621094 C 5.59375 13.375 7.648438 8.539062 11.894531 6.824219 C 14.152344 5.914062 16.578125 6.066406 18.609375 7.046875 C 20.402344 7.914062 21.886719 9.421875 22.691406 11.410156 Z M 22.691406 11.410156 " fill-opacity="1" fill-rule="nonzero"/><path fill="#b53939" d="M 22.691406 11.410156 C 24.40625 15.65625 22.355469 20.492188 18.109375 22.207031 C 16.121094 23.011719 14 22.988281 12.136719 22.300781 C 10.34375 21.433594 8.859375 19.925781 8.054688 17.9375 C 6.339844 13.691406 8.390625 8.855469 12.636719 7.140625 C 14.628906 6.335938 16.746094 6.359375 18.609375 7.046875 C 20.402344 7.914062 21.886719 9.421875 22.691406 11.410156 Z M 22.691406 11.410156 " fill-opacity="1" fill-rule="nonzero"/><path fill="#cc4040" d="M 20.742188 12.199219 C 22.023438 15.367188 20.492188 18.976562 17.320312 20.257812 C 15.355469 21.050781 13.226562 20.765625 11.585938 19.683594 C 10.574219 19.015625 9.746094 18.042969 9.257812 16.835938 C 7.976562 13.664062 9.511719 10.054688 12.679688 8.773438 C 13.890625 8.285156 15.164062 8.207031 16.347656 8.472656 C 18.265625 8.902344 19.949219 10.234375 20.742188 12.199219 Z M 20.742188 12.199219 " fill-opacity="1" fill-rule="nonzero"/><path fill="#e84949" d="M 18.675781 11.320312 C 19.957031 14.488281 18.421875 18.097656 15.25 19.378906 C 14.042969 19.867188 12.769531 19.945312 11.585938 19.683594 C 10.574219 19.015625 9.746094 18.042969 9.257812 16.832031 C 7.976562 13.664062 9.511719 10.054688 12.679688 8.773438 C 13.890625 8.285156 15.164062 8.207031 16.347656 8.46875 C 17.359375 9.136719 18.1875 10.109375 18.675781 11.320312 Z M 18.675781 11.320312 " fill-opacity="1" fill-rule="nonzero"/><path fill="#b53727" d="M 13.359375 11.980469 C 13.601562 12.578125 13.3125 13.261719 12.714844 13.503906 C 12.335938 13.65625 11.921875 13.59375 11.609375 13.378906 C 11.429688 13.25 11.28125 13.074219 11.195312 12.859375 C 10.953125 12.261719 11.242188 11.578125 11.839844 11.335938 C 12.058594 11.25 12.289062 11.230469 12.503906 11.273438 C 12.875 11.347656 13.207031 11.601562 13.359375 11.980469 Z M 13.359375 11.980469 " fill-opacity="1" fill-rule="nonzero"/><path fill="#d4412f" d="M 12.914062 11.792969 C 13.15625 12.390625 12.867188 13.074219 12.269531 13.3125 C 12.050781 13.402344 11.824219 13.417969 11.609375 13.378906 C 11.429688 13.25 11.28125 13.074219 11.195312 12.859375 C 10.953125 12.261719 11.242188 11.578125 11.839844 11.335938 C 12.058594 11.25 12.289062 11.230469 12.503906 11.273438 C 12.679688 11.398438 12.828125 11.574219 12.914062 11.792969 Z M 12.914062 11.792969 " fill-opacity="1" fill-rule="nonzero"/><path fill="#b53727" d="M 11.550781 15.050781 C 11.691406 15.398438 11.523438 15.792969 11.175781 15.933594 C 10.957031 16.019531 10.71875 15.984375 10.535156 15.859375 C 10.433594 15.789062 10.347656 15.683594 10.296875 15.558594 C 10.15625 15.210938 10.324219 14.820312 10.671875 14.679688 C 10.796875 14.628906 10.929688 14.617188 11.054688 14.640625 C 11.269531 14.683594 11.460938 14.832031 11.550781 15.050781 Z M 11.550781 15.050781 " fill-opacity="1" fill-rule="nonzero"/><path fill="#d4412f" d="M 11.292969 14.945312 C 11.433594 15.289062 11.265625 15.683594 10.917969 15.824219 C 10.792969 15.875 10.660156 15.882812 10.535156 15.859375 C 10.433594 15.789062 10.347656 15.683594 10.296875 15.558594 C 10.15625 15.214844 10.324219 14.820312 10.671875 14.679688 C 10.796875 14.628906 10.929688 14.617188 11.054688 14.644531 C 11.15625 14.714844 11.242188 14.816406 11.292969 14.945312 Z M 11.292969 14.945312 " fill-opacity="1" fill-rule="nonzero"/><path fill="#b53727" d="M 14.511719 9.699219 C 14.652344 10.046875 14.484375 10.4375 14.140625 10.578125 C 13.917969 10.667969 13.679688 10.632812 13.5 10.503906 C 13.394531 10.433594 13.308594 10.332031 13.257812 10.203125 C 13.121094 9.859375 13.285156 9.464844 13.632812 9.324219 C 13.761719 9.273438 13.890625 9.265625 14.015625 9.289062 C 14.234375 9.332031 14.425781 9.480469 14.511719 9.699219 Z M 14.511719 9.699219 " fill-opacity="1" fill-rule="nonzero"/><path fill="#d4412f" d="M 14.253906 9.589844 C 14.394531 9.9375 14.226562 10.328125 13.882812 10.46875 C 13.753906 10.519531 13.621094 10.53125 13.5 10.507812 C 13.394531 10.433594 13.308594 10.332031 13.257812 10.207031 C 13.121094 9.859375 13.285156 9.464844 13.632812 9.324219 C 13.761719 9.277344 13.890625 9.265625 14.015625 9.289062 C 14.121094 9.359375 14.203125 9.464844 14.253906 9.589844 Z M 14.253906 9.589844 " fill-opacity="1" fill-rule="nonzero"/><path fill="#b53727" d="M 14.109375 18.269531 C 14.25 18.617188 14.082031 19.007812 13.734375 19.148438 C 13.515625 19.238281 13.277344 19.203125 13.09375 19.078125 C 12.992188 19.003906 12.90625 18.902344 12.855469 18.777344 C 12.714844 18.429688 12.882812 18.035156 13.230469 17.894531 C 13.355469 17.84375 13.488281 17.835938 13.613281 17.859375 C 13.828125 17.902344 14.019531 18.050781 14.109375 18.269531 Z M 14.109375 18.269531 " fill-opacity="1" fill-rule="nonzero"/><path fill="#d4412f" d="M 13.851562 18.160156 C 13.992188 18.507812 13.824219 18.898438 13.480469 19.039062 C 13.351562 19.089844 13.21875 19.101562 13.097656 19.078125 C 12.992188 19.003906 12.90625 18.902344 12.855469 18.777344 C 12.714844 18.429688 12.882812 18.035156 13.230469 17.898438 C 13.355469 17.847656 13.488281 17.835938 13.613281 17.859375 C 13.714844 17.933594 13.800781 18.035156 13.851562 18.160156 Z M 13.851562 18.160156 " fill-opacity="1" fill-rule="nonzero"/><path fill="#b53727" d="M 18.15625 15.726562 C 18.296875 16.074219 18.128906 16.46875 17.78125 16.609375 C 17.5625 16.695312 17.324219 16.660156 17.140625 16.535156 C 17.039062 16.464844 16.953125 16.359375 16.902344 16.234375 C 16.761719 15.886719 16.929688 15.496094 17.277344 15.355469 C 17.402344 15.304688 17.535156 15.292969 17.660156 15.316406 C 17.875 15.359375 18.066406 15.507812 18.15625 15.726562 Z M 18.15625 15.726562 " fill-opacity="1" fill-rule="nonzero"/><path fill="#d4412f" d="M 17.898438 15.617188 C 18.039062 15.964844 17.871094 16.359375 17.523438 16.5 C 17.398438 16.550781 17.265625 16.558594 17.140625 16.535156 C 17.039062 16.464844 16.953125 16.359375 16.902344 16.234375 C 16.761719 15.886719 16.929688 15.496094 17.277344 15.355469 C 17.402344 15.304688 17.535156 15.292969 17.660156 15.316406 C 17.761719 15.390625 17.847656 15.492188 17.898438 15.617188 Z M 17.898438 15.617188 " fill-opacity="1" fill-rule="nonzero"/><path fill="#b53727" d="M 17.964844 11.84375 C 18.316406 12.71875 17.894531 13.710938 17.023438 14.0625 C 16.46875 14.285156 15.867188 14.199219 15.410156 13.878906 C 15.148438 13.699219 14.933594 13.4375 14.804688 13.121094 C 14.453125 12.25 14.875 11.257812 15.746094 10.902344 C 16.066406 10.777344 16.398438 10.75 16.710938 10.8125 C 17.257812 10.917969 17.738281 11.289062 17.964844 11.84375 Z M 17.964844 11.84375 " fill-opacity="1" fill-rule="nonzero"/><path fill="#d4412f" d="M 17.316406 11.570312 C 17.667969 12.441406 17.246094 13.433594 16.375 13.785156 C 16.054688 13.914062 15.722656 13.941406 15.410156 13.878906 C 15.148438 13.699219 14.933594 13.4375 14.804688 13.121094 C 14.453125 12.25 14.875 11.257812 15.746094 10.902344 C 16.066406 10.777344 16.398438 10.75 16.710938 10.8125 C 16.972656 10.992188 17.1875 11.25 17.316406 11.570312 Z M 17.316406 11.570312 " fill-opacity="1" fill-rule="nonzero"/><path fill="#b53727" d="M 15.195312 15.214844 C 15.460938 15.871094 15.140625 16.621094 14.484375 16.886719 C 14.066406 17.054688 13.613281 16.988281 13.269531 16.75 C 13.070312 16.613281 12.910156 16.417969 12.8125 16.175781 C 12.546875 15.519531 12.867188 14.769531 13.523438 14.503906 C 13.761719 14.40625 14.015625 14.386719 14.25 14.433594 C 14.664062 14.515625 15.023438 14.796875 15.195312 15.214844 Z M 15.195312 15.214844 " fill-opacity="1" fill-rule="nonzero"/><path fill="#d4412f" d="M 14.703125 15.007812 C 14.972656 15.664062 14.652344 16.414062 13.996094 16.679688 C 13.757812 16.777344 13.503906 16.796875 13.265625 16.75 C 13.070312 16.613281 12.910156 16.417969 12.8125 16.175781 C 12.546875 15.519531 12.863281 14.769531 13.519531 14.503906 C 13.761719 14.410156 14.011719 14.390625 14.25 14.433594 C 14.445312 14.574219 14.609375 14.765625 14.703125 15.007812 Z M 14.703125 15.007812 " fill-opacity="1" fill-rule="nonzero"/></svg>